<svg xmlns="http://www.w3.org/2000/svg"><defs><font id="vcpb-plugin-icons" horiz-adv-x="1024"><font-face units-per-em="1024" ascent="960" descent="-64"/><glyph horiz-adv-x="512"/><glyph unicode="" glyph-name="icon-arrow_back" d="M854 468.667v-84H334l238-240-60-60-342 342 342 342 60-60-238-240h520z"/><glyph unicode="" glyph-name="icon-arrow_drop_down" d="M298 512.667h428l-214-214z"/><glyph unicode="" glyph-name="icon-arrow_drop_up" d="m298 340.667 214 214 214-214H298z"/><glyph unicode="" glyph-name="icon-arrow_forward" d="m512 768.667 342-342-342-342-60 60 238 240H170v84h520l-238 240z"/><glyph unicode="" glyph-name="icon-check" d="m384 248.667 452 452 60-60-512-512-238 238 60 60z"/><glyph unicode="" glyph-name="icon-close" d="m810 664.667-238-238 238-238-60-60-238 238-238-238-60 60 238 238-238 238 60 60 238-238 238 238z"/><glyph unicode="" glyph-name="icon-arrow_upward" d="m170 426.667 342 342 342-342-62-60-238 238v-520h-84v520l-240-238z"/><glyph unicode="" glyph-name="icon-arrow_downward" d="m854 426.667-342-342-342 342 62 60 238-238v520h84v-520l240 238z"/><glyph unicode="" glyph-name="icon-sync" d="M512 170.667v128l170-170-170-172v128c-188 0-342 154-342 342 0 66 20 130 54 182l62-62c-20-36-30-76-30-120 0-142 114-256 256-256zm0 598c188 0 342-154 342-342 0-66-20-130-54-182l-62 62c20 36 30 76 30 120 0 142-114 256-256 256v-128l-170 170 170 172v-128z"/><glyph unicode="" glyph-name="icon-search" d="M406 340.667c106 0 192 86 192 192s-86 192-192 192-192-86-192-192 86-192 192-192zm256 0 212-212-64-64-212 212v34l-12 12c-48-42-112-66-180-66-154 0-278 122-278 276s124 278 278 278 276-124 276-278c0-68-24-132-66-180l12-12h34z"/><glyph unicode="" glyph-name="icon-1-1" horiz-adv-x="2487" d="M0 82.286h2486.857V-64H0V82.286zm0 438.857h2486.857V374.857H0v146.286zM0 960h2486.857V813.714H0V960z"/><glyph unicode="" glyph-name="icon-1-2_1-2" horiz-adv-x="2487" d="M0 82.286h1170.286V-64H0V82.286zm0 438.857h1170.286V374.857H0v146.286zM0 960h1170.286V813.714H0V960zM1316.571 82.286h1170.286V-64H1316.571V82.286zm0 438.857h1170.286V374.857H1316.571v146.286zm0 438.857h1170.286V813.714H1316.571V960z"/><glyph unicode="" glyph-name="icon-1-3_1-3_1-3" horiz-adv-x="2487" d="M0 82.286h731.429V-64H0V82.286zm0 438.857h731.429V374.857H0v146.286zM0 960h731.429V813.714H0V960zM877.714 82.286h804.571V-64H877.714V82.286zm0 438.857h804.571V374.857H877.714v146.286zm0 438.857h804.571V813.714H877.714V960zm950.857-877.714h658.286V-64h-658.286V82.286zm0 438.857h658.286V374.857h-658.286v146.286zm0 438.857h658.286V813.714h-658.286V960z"/><glyph unicode="" glyph-name="icon-add_template" d="M0 813.286C0 894.314 65.614 960 146.714 960h730.572C958.314 960 1024 894.386 1024 813.286V82.714C1024 1.686 958.386-64 877.286-64H146.714C65.686-64 0 1.614 0 82.714v730.572zm97.524-48.572V618.666h828.952v146.048c0 54.174-43.665 97.762-97.529 97.762H195.053c-54.128 0-97.529-43.769-97.529-97.762zm97.422-731.19h195.149v487.619H97.524V131.029c0-54.232 43.617-97.505 97.422-97.505zm634.134 0c53.791 0 97.397 43.273 97.397 97.505v390.114H487.62V33.524h341.461z"/><glyph unicode="" glyph-name="icon-1-4_1-2_1-4" horiz-adv-x="2487" d="M0 82.286h585.143V-64H0V82.286zm0 438.857h585.143V374.857H0v146.286zM0 960h585.143V813.714H0V960zM731.429 82.286h1024V-64h-1024V82.286zm0 438.857h1024V374.857h-1024v146.286zm0 438.857h1024V813.714h-1024V960zM1901.714 82.286h585.143V-64h-585.143V82.286zm0 438.857h585.143V374.857h-585.143v146.286zm0 438.857h585.143V813.714h-585.143V960z"/><glyph unicode="" glyph-name="icon-1-4_1-4_1-4_1-4" horiz-adv-x="2487" d="M0 82.286h512V-64H0V82.286zm0 438.857h512V374.857H0v146.286zM0 960h512V813.714H0V960zM658.286 82.286h512V-64h-512V82.286zm0 438.857h512V374.857h-512v146.286zm0 438.857h512V813.714h-512V960zm658.285-877.714h512V-64h-512V82.286zm0 438.857h512V374.857h-512v146.286zm0 438.857h512V813.714h-512V960zm658.286-877.714h512V-64h-512V82.286zm0 438.857h512V374.857h-512v146.286zm0 438.857h512V813.714h-512V960z"/><glyph unicode="" glyph-name="icon-1-4_3-4" horiz-adv-x="2487" d="M0 82.286h658.286V-64H0V82.286zm0 438.857h658.286V374.857H0v146.286zM0 960h658.286V813.714H0V960zM804.571 82.286h1682.286V-64H804.571V82.286zm0 438.857h1682.286V374.857H804.571v146.286zm0 438.857h1682.286V813.714H804.571V960z"/><glyph unicode="" glyph-name="icon-1-6_1-6_1-6_1-2" horiz-adv-x="2487" d="M0 82.286h292.571V-64H0V82.286zm0 438.857h292.571V374.857H0v146.286zM0 960h292.571V813.714H0V960zM438.857 82.286h292.571V-64H438.857V82.286zm0 438.857h292.571V374.857H438.857v146.286zm0 438.857h292.571V813.714H438.857V960zM877.714 82.286h292.571V-64H877.714V82.286zm0 438.857h292.571V374.857H877.714v146.286zm0 438.857h292.571V813.714H877.714V960zm438.857-877.714h1170.286V-64H1316.571V82.286zm0 438.857h1170.286V374.857H1316.571v146.286zm0 438.857h1170.286V813.714H1316.571V960z"/><glyph unicode="" glyph-name="icon-1-6_1-6_1-6_1-6_1-6_1-6" horiz-adv-x="2487" d="M0 82.286h292.571V-64H0V82.286zm0 438.857h292.571V374.857H0v146.286zM0 960h292.571V813.714H0V960zM438.857 82.286h292.571V-64H438.857V82.286zm0 438.857h292.571V374.857H438.857v146.286zm0 438.857h292.571V813.714H438.857V960zM877.714 82.286h292.571V-64H877.714V82.286zm0 438.857h292.571V374.857H877.714v146.286zm0 438.857h292.571V813.714H877.714V960zm438.857-877.714h292.571V-64h-292.571V82.286zm0 438.857h292.571V374.857h-292.571v146.286zm0 438.857h292.571V813.714h-292.571V960zm438.858-877.714H2048V-64h-292.571V82.286zm0 438.857H2048V374.857h-292.571v146.286zm0 438.857H2048V813.714h-292.571V960zm438.857-877.714h292.571V-64h-292.571V82.286zm0 438.857h292.571V374.857h-292.571v146.286zm0 438.857h292.571V813.714h-292.571V960z"/><glyph unicode="" glyph-name="icon-l_15_15_15_15_15" horiz-adv-x="2487" d="M0 82.28h355.597V-64.006H0V82.28zm0 438.858h355.597V374.852H0v146.286zm0 438.858h355.597V813.71H0v146.286zM533.396 82.28h355.597V-64.006H533.396V82.28zm0 438.858h355.597V374.852H533.396v146.286zm0 438.858h355.597V813.71H533.396v146.286zM1066.792 82.28h355.597V-64.006h-355.597V82.28zm0 438.858h355.597V374.852h-355.597v146.286zm0 438.858h355.597V813.71h-355.597v146.286zM1600.188 82.28h355.597V-64.006h-355.597V82.28zm0 438.858h355.597V374.852h-355.597v146.286zm0 438.858h355.597V813.71h-355.597v146.286zM2133.585 82.28h355.597V-64.006h-355.597V82.28zm0 438.858h355.597V374.852h-355.597v146.286zm0 438.858h355.597V813.71h-355.597v146.286z"/><glyph unicode="" glyph-name="icon-1-6_2-3_1-6" horiz-adv-x="2121" d="M0 9.143c0 40.396 32.428 73.143 73.828 73.143h144.915c40.774 0 73.828-32.466 73.828-73.143 0-40.396-32.428-73.143-73.828-73.143H73.828C33.054-64 0-31.534 0 9.143zM0 448c0 40.396 32.428 73.143 73.828 73.143h144.915c40.774 0 73.828-32.466 73.828-73.143 0-40.396-32.428-73.143-73.828-73.143H73.828C33.054 374.857 0 407.323 0 448zm0 438.857C0 927.253 32.428 960 73.828 960h144.915c40.774 0 73.828-32.466 73.828-73.143 0-40.396-32.428-73.143-73.828-73.143H73.828C33.054 813.714 0 846.18 0 886.857zM365.714 9.143c0 40.396 32.982 73.143 72.76 73.143h1244.193c40.184 0 72.76-32.466 72.76-73.143 0-40.396-32.982-73.143-72.76-73.143H438.474c-40.184 0-72.76 32.466-72.76 73.143zm0 438.857c0 40.396 32.982 73.143 72.76 73.143h1244.193c40.184 0 72.76-32.466 72.76-73.143 0-40.396-32.982-73.143-72.76-73.143H438.474c-40.184 0-72.76 32.466-72.76 73.143zm0 438.857c0 40.396 32.982 73.143 72.76 73.143h1244.193c40.184 0 72.76-32.466 72.76-73.143 0-40.396-32.982-73.143-72.76-73.143H438.474c-40.184 0-72.76 32.466-72.76 73.143zM1828.571 9.143c0 40.396 32.428 73.143 73.828 73.143h144.915c40.774 0 73.828-32.466 73.828-73.143 0-40.396-32.428-73.143-73.828-73.143h-144.915c-40.774 0-73.828 32.466-73.828 73.143zm0 438.857c0 40.396 32.428 73.143 73.828 73.143h144.915c40.774 0 73.828-32.466 73.828-73.143 0-40.396-32.428-73.143-73.828-73.143h-144.915c-40.774 0-73.828 32.466-73.828 73.143zm0 438.857c0 40.396 32.428 73.143 73.828 73.143h144.915c40.774 0 73.828-32.466 73.828-73.143 0-40.396-32.428-73.143-73.828-73.143h-144.915c-40.774 0-73.828 32.466-73.828 73.143z"/><glyph unicode="" glyph-name="icon-2-3_1-3" horiz-adv-x="2487" d="M0 82.286h1536V-64H0V82.286zm0 438.857h1536V374.857H0v146.286zM0 960h1536V813.714H0V960zM1682.286 82.286h804.571V-64h-804.571V82.286zm0 438.857h804.571V374.857h-804.571v146.286zm0 438.857h804.571V813.714h-804.571V960z"/><glyph unicode="" glyph-name="icon-5-6_1-6" horiz-adv-x="2487" d="M0 82.286h2048V-64H0V82.286zm0 438.857h2048V374.857H0v146.286zM0 960h2048V813.714H0V960zM2194.286 82.286h292.571V-64h-292.571V82.286zm0 438.857h292.571V374.857h-292.571v146.286zm0 438.857h292.571V813.714h-292.571V960z"/><glyph unicode="" glyph-name="icon-add_element" d="M438.857 521.143H72.823C32.911 521.143 0 488.396 0 448c0-40.677 32.604-73.143 72.823-73.143h366.034V8.823C438.857-31.089 471.604-64 512-64c40.677 0 73.143 32.604 73.143 72.823v366.034h366.034c39.912 0 72.823 32.747 72.823 73.143 0 40.677-32.604 73.143-72.823 73.143H585.143v366.034C585.143 927.089 552.396 960 512 960c-40.677 0-73.143-32.604-73.143-72.823V521.143z"/><glyph unicode="" glyph-name="icon-1-6_4-6_1-6" horiz-adv-x="2487" d="M0 82.286h292.571V-64H0V82.286zm0 438.857h292.571V374.857H0v146.286zM0 960h292.571V813.714H0V960zM438.857 82.286H2048V-64H438.857V82.286zm0 438.857H2048V374.857H438.857v146.286zm0 438.857H2048V813.714H438.857V960zM2194.286 82.286h292.571V-64h-292.571V82.286zm0 438.857h292.571V374.857h-292.571v146.286zm0 438.857h292.571V813.714h-292.571V960z"/><glyph unicode="" glyph-name="icon-add" d="M448 512H64.056C28.457 512 0 483.346 0 448c0-35.593 28.679-64 64.056-64H448V.056C448-35.543 476.654-64 512-64c35.593 0 64 28.679 64 64.056V384h383.944c35.599 0 64.056 28.654 64.056 64 0 35.593-28.679 64-64.056 64H576v383.944C576 931.543 547.346 960 512 960c-35.593 0-64-28.679-64-64.056V512z"/><glyph unicode="" glyph-name="icon-cog" d="M1024 448c0 38.083-27.441 78.683-61.271 90.658s-66.623 41.299-76.165 64.423c-9.542 23.125-7.066 67.131 8.378 99.544 15.423 32.413 6.072 80.545-20.861 107.478-26.912 26.933-75.044 36.263-107.478 20.84-32.413-15.423-76.356-17.941-99.417-8.399s-52.406 42.378-64.423 76.208c-12.038 33.83-52.681 61.25-90.764 61.25s-78.725-27.42-90.764-61.25c-12.038-33.83-41.362-66.666-64.423-76.208s-67.025-7.024-99.438 8.399c-32.413 15.423-80.545 6.093-107.478-20.84s-36.263-75.044-20.84-107.478c15.423-32.434 17.878-76.398 8.294-99.501s-42.272-52.491-76.102-64.465c-33.83-11.975-61.25-52.575-61.25-90.658s27.42-78.725 61.25-90.764c33.83-12.017 66.56-41.404 76.144-64.465 9.584-23.04 7.088-66.983-8.336-99.396s-6.093-80.545 20.84-107.478c26.933-26.912 75.044-36.263 107.478-20.84s76.377 17.92 99.438 8.357c23.082-9.563 52.385-42.483 64.423-76.25S473.916-64 511.999-64s78.725 27.398 90.764 61.165c12.017 33.767 41.32 66.645 64.381 76.25 23.061 9.584 67.068 7.066 99.459-8.378 32.434-15.423 80.566-6.072 107.478 20.84 26.933 26.933 36.284 75.065 20.861 107.478-15.423 32.434-17.962 76.377-8.42 99.438s42.399 52.406 76.229 64.423c33.83 12.06 61.25 52.702 61.25 90.785zM511.908 209.167c-132.14 0-238.983 106.842-238.983 238.713 0 132.14 106.842 238.983 238.983 238.983 131.844 0 238.713-106.842 238.713-238.983 0-131.871-106.842-238.713-238.713-238.713z"/><glyph unicode="" glyph-name="icon-content_copy" d="M0 550.594C0 663.595 92.079 755.2 205.196 755.2h340.542c113.327 0 205.196-91.588 205.196-204.606V140.605c0-113.001-92.079-204.606-205.196-204.606H205.196C91.869-64.001 0 27.587 0 140.605v409.989zm136.533-68.331V208.937c0-75.871 61.309-136.404 136.937-136.404h203.992c76.415 0 136.937 61.07 136.937 136.404v273.326c0 75.871-61.309 136.404-136.937 136.404H273.47c-76.415 0-136.937-61.07-136.937-136.404zm614.4-341.463h67.871C931.921 140.8 1024 232.405 1024 345.406v409.989c0 113.017-91.869 204.606-205.196 204.606H478.262c-113.117 0-205.196-91.605-205.196-204.606v-.194H427.71c23.492 40.807 67.586 68.267 118.827 68.267h203.992c75.628 0 136.937-60.532 136.937-136.404V413.738c0-75.201-60.309-136.188-136.533-136.403V140.801z"/><glyph unicode="" glyph-name="icon-delete_empty" d="M512 568.68 150.014 930.666c-33.563 33.563-87.407 33.377-120.732.053-33.557-33.557-33.301-87.378.053-120.732l361.986-361.986L29.335 86.015C-4.228 52.452-4.042-1.392 29.282-34.717c33.557-33.557 87.378-33.301 120.732.053L512 327.322 873.986-34.664c33.563-33.563 87.407-33.377 120.732-.053 33.557 33.557 33.301 87.378-.053 120.732L632.679 448.001l361.986 361.986c33.563 33.563 33.377 87.407.053 120.732-33.557 33.557-87.378 33.301-120.732-.053L512 568.68z"/><glyph unicode="" glyph-name="icon-dragndrop" d="M960.804 342.927c-39.719 6.856-77.475-19.784-84.331-59.501a72.893 72.893 0 0 1-1.056-13.478v-36.49a109.476 109.476 0 0 1 11.312-48.532l10.217-20.799-113.484 113.119-2.189 1.824-72.98 72.98c-28.517 28.517-74.75 28.517-103.267 0s-28.517-74.75 0-103.267L792.22 61.589l-18.975 9.122a109.447 109.447 0 0 1-47.072 13.501h-36.49c-40.305.13-73.085-32.44-73.213-72.745a72.821 72.821 0 0 1 .233-6.073c4.495-38.746 37.628-67.776 76.629-67.142h255.43c40.305 0 72.98 32.674 72.98 72.98v255.43c1.049 36.896-24.72 69.146-60.938 76.264zM344.83 83.157a72.893 72.893 0 0 1-13.478 1.056h-36.49a109.476 109.476 0 0 1-48.532-11.312l-20.799-10.217 669.591 667.402-8.758-18.61a109.47 109.47 0 0 1-10.582-46.707v-36.49c-.13-40.305 32.44-73.085 72.745-73.213a72.821 72.821 0 0 1 6.073.233c38.606 4.481 67.589 37.402 67.142 76.264v255.43c0 40.305-32.674 72.98-72.98 72.98h-255.43c-36.647.901-68.649-24.64-75.899-60.573-6.856-39.719 19.784-77.475 59.501-84.331a72.893 72.893 0 0 1 13.478-1.056h36.49a109.476 109.476 0 0 1 48.532 11.312l20.799 10.217L510.881 552.38 229.908 833.353l18.61-8.758a109.47 109.47 0 0 1 46.707-10.582h36.49c40.305-.13 73.085 32.44 73.213 72.745a72.821 72.821 0 0 1-.233 6.073c-4.481 38.606-37.402 67.589-76.264 67.142H73.001c-40.305 0-72.98-32.674-72.98-72.98v-255.43c-.901-36.647 24.64-68.649 60.573-75.899 39.719-6.856 77.475 19.784 84.331 59.501a72.893 72.893 0 0 1 1.056 13.478v36.49a109.476 109.476 0 0 1-11.312 48.532l-10.582 18.245 283.527-282.797L125.911 167.41l9.122 18.975a109.442 109.442 0 0 1 10.947 47.072v36.49c.13 40.305-32.44 73.085-72.745 73.213a72.821 72.821 0 0 1-6.073-.233C28.556 338.446-.427 305.525.02 266.663V11.233c0-40.305 32.674-72.98 72.98-72.98h255.43c36.647-.901 68.649 24.64 75.899 60.573 6.856 39.719-19.784 77.475-59.501 84.331z"/><glyph unicode="" glyph-name="icon-fullscreen_exit" d="M395.15 331.212c-16.348 16.341-38.923 26.435-63.856 26.435H90.455c-50.025 0-90.454-40.452-90.454-90.353 0-50.248 40.498-90.353 90.454-90.353h150.487V26.454c0-50.025 40.452-90.454 90.353-90.454 50.248 0 90.353 40.498 90.353 90.454V267.293c0 25.107-10.111 47.682-26.46 63.987zm387.909-154.271h150.487c50.025 0 90.454 40.452 90.454 90.353 0 50.248-40.498 90.353-90.454 90.353H692.707c-25.107 0-47.682-10.111-63.987-26.46-16.273-16.385-26.366-38.959-26.366-63.893V26.455c0-50.025 40.452-90.454 90.353-90.454 50.248 0 90.353 40.498 90.353 90.454v150.487zm0 542.118v150.487c0 50.025-40.452 90.454-90.353 90.454-50.248 0-90.353-40.498-90.353-90.454V628.707c0-25.107 10.111-47.682 26.46-63.987 16.385-16.273 38.959-26.366 63.893-26.366h240.839c50.025 0 90.454 40.452 90.454 90.353 0 50.248-40.498 90.353-90.454 90.353H783.058zm-542.118 0H90.454C40.429 719.059 0 678.607 0 628.706c0-50.248 40.498-90.353 90.454-90.353H331.293c25.107 0 47.682 10.111 63.987 26.46 16.273 16.385 26.366 38.959 26.366 63.893v240.839c0 50.025-40.452 90.454-90.353 90.454-50.248 0-90.353-40.498-90.353-90.454V719.058z"/><glyph unicode="" glyph-name="icon-fullscreen" d="M21.45-42.6C34.684-55.828 52.959-64 73.143-64H268.109c40.496 0 73.225 32.747 73.225 73.143 0 40.677-32.784 73.143-73.225 73.143H146.286v121.823c0 40.496-32.747 73.225-73.143 73.225C32.466 277.334 0 244.55 0 204.109V9.143c0-20.325 8.185-38.6 21.42-51.799zm981.15.05c13.228 13.234 21.4 31.509 21.4 51.693V204.109c0 40.496-32.747 73.225-73.143 73.225-40.677 0-73.143-32.784-73.143-73.225V82.286H755.891c-40.496 0-73.225-32.747-73.225-73.143C682.666-31.534 715.45-64 755.891-64H950.857c20.325 0 38.6 8.185 51.799 21.42zm-.05 981.15c-13.234 13.228-31.509 21.4-51.693 21.4H755.891c-40.496 0-73.225-32.747-73.225-73.143 0-40.677 32.784-73.143 73.225-73.143h121.823V691.891c0-40.496 32.747-73.225 73.143-73.225 40.677 0 73.143 32.784 73.143 73.225V886.857c0 20.325-8.185 38.6-21.42 51.799zm-981.15-.05C8.172 925.316 0 907.041 0 886.857V691.891c0-40.496 32.747-73.225 73.143-73.225 40.677 0 73.143 32.784 73.143 73.225v121.823h121.823c40.496 0 73.225 32.747 73.225 73.143 0 40.677-32.784 73.143-73.225 73.143H73.143c-20.325 0-38.6-8.185-51.799-21.42z"/><glyph unicode="" glyph-name="icon-arrow_drop_right" d="M426.667 233.344v427.989l214.016-214.016z"/><glyph unicode="" glyph-name="icon-layout_default" d="M0 862.766C0 916.467 44 960 97.259 960h829.483c53.714 0 97.259-43.618 97.259-97.234V277.044c0-53.701-44-97.234-97.259-97.234H97.259C43.545 179.81 0 223.428 0 277.044v585.722zm146.286-97.589V374.633c0-26.318 21.995-48.537 49.127-48.537h633.175c27.237 0 49.127 21.731 49.127 48.537v390.544c0 26.318-21.995 48.537-49.127 48.537H195.413c-27.237 0-49.127-21.731-49.127-48.537zM243.81 9.143c0 40.396 32.746 73.143 73.457 73.143h389.467c40.569 0 73.457-32.466 73.457-73.143 0-40.396-32.746-73.143-73.457-73.143H317.267c-40.569 0-73.457 32.466-73.457 73.143z"/><glyph unicode="" glyph-name="icon-layout_landscape-smartphones" horiz-adv-x="1297" d="M0 824.021C0 899.12 60.821 960 136.357 960h1024.352c75.308 0 136.357-60.989 136.357-135.979V71.98c0-75.099-60.821-135.979-136.357-135.979H136.357C61.049-63.999 0-3.01 0 71.98v752.041zm204.8-136.92V208.899c0-37.631 30.518-68.099 68.164-68.099h751.138c37.616 0 68.164 30.489 68.164 68.099v478.202c0 37.631-30.518 68.099-68.164 68.099H272.964c-37.616 0-68.164-30.489-68.164-68.099zM750.933 448c0 56.554 45.452 102.4 102.4 102.4 56.554 0 102.4-45.452 102.4-102.4 0-56.554-45.452-102.4-102.4-102.4-56.554 0-102.4 45.452-102.4 102.4z"/><glyph unicode="" glyph-name="icon-layout_landscape-tablets" horiz-adv-x="1126" d="M25.6 832.132c0 56.481 46.2 102.268 102.122 102.268h870.957c56.4 0 102.122-45.615 102.122-102.268V63.868c0-56.481-46.2-102.268-102.122-102.268H127.722C71.322-38.4 25.6 7.215 25.6 63.868v768.264zm153.6-102.455V166.324c0-28.212 23.095-51.123 51.583-51.123h664.834c28.598 0 51.583 22.889 51.583 51.123v563.353c0 28.212-23.095 51.123-51.583 51.123H230.783c-28.598 0-51.583-22.889-51.583-51.123zM691.2 448c0 42.415 34.089 76.8 76.8 76.8 42.415 0 76.8-34.089 76.8-76.8 0-42.415-34.089-76.8-76.8-76.8-42.415 0-76.8 34.089-76.8 76.8z"/><glyph unicode="" glyph-name="icon-layout_portrait-smartphones" horiz-adv-x="808" d="M701.069 960c59.289 0 107.352-48.016 107.352-107.651V43.65c0-59.454-48.149-107.651-107.352-107.651H107.352C48.063-64.001 0-15.985 0 43.65v808.699C0 911.803 48.149 960 107.352 960h593.717zM592.974 798.316H215.446c-29.709 0-53.762-24.093-53.762-53.814V151.498c0-29.697 24.07-53.814 53.762-53.814h377.528c29.709 0 53.762 24.093 53.762 53.814v593.004c0 29.697-24.07 53.814-53.762 53.814zM404.211 367.158c44.648 0 80.842-35.883 80.842-80.842 0-44.648-35.883-80.842-80.842-80.842-44.648 0-80.842 35.883-80.842 80.842 0 44.648 35.883 80.842 80.842 80.842z"/><glyph unicode="" glyph-name="icon-layout_portrait-tablets" horiz-adv-x="931" d="M814.665 936.727c51.346 0 92.971-42 92.971-92.838V52.11c0-51.273-41.469-92.838-92.971-92.838H116.243c-51.346 0-92.971 42-92.971 92.838v791.779c0 51.273 41.469 92.838 92.971 92.838h698.422zm-93.141-139.636H209.385c-25.647 0-46.476-20.995-46.476-46.894V145.803c0-25.999 20.808-46.894 46.476-46.894h512.139c25.647 0 46.476 20.995 46.476 46.894v604.394c0 25.999-20.808 46.894-46.476 46.894zM465.455 331.636c38.56 0 69.818-30.99 69.818-69.818 0-38.56-30.99-69.818-69.818-69.818-38.56 0-69.818 30.99-69.818 69.818 0 38.56 30.99 69.818 69.818 69.818z"/><glyph unicode="" glyph-name="icon-minimize" d="M213.333 192h597.333v-85.333H213.333V192z"/><glyph unicode="" glyph-name="icon-mode_edit" horiz-adv-x="956" d="M925.768 793.574 822.003 897.375c-41.083 41.083-112.688 41.083-153.771 0L107.671 336.85 30.421 53.528 11.518 34.625C-2.614 20.494-2.65-2.306 11.299-16.547l-.182-.728.728.182c7.066-6.92 16.244-10.453 25.422-10.453 9.324 0 18.648 3.569 25.75 10.671L81.92 2.028l283.322 77.25 560.525 560.561c20.542 20.542 31.869 47.821 31.869 76.886s-11.327 56.344-31.869 76.849zM260.034 317.911l304.797 304.797 86.269-86.269-304.797-304.797-86.269 86.269zM806.001 691.34l-35.134-35.134-86.269 86.269 35.134 35.134c13.549 13.549 37.186 13.585 50.735 0l35.534-35.534c6.774-6.774 10.526-15.77 10.526-25.349-.036-9.579-3.751-18.611-10.526-25.386z"/><glyph unicode="" glyph-name="icon-row_default_fe" horiz-adv-x="2121" d="M0 9.143c0 40.396 33.318 73.143 73.015 73.143h1975.114c40.325 0 73.015-32.466 73.015-73.143 0-40.396-33.318-73.143-73.015-73.143H73.015C32.69-64 0-31.534 0 9.143zM0 448c0 40.396 33.318 73.143 73.015 73.143h1975.114c40.325 0 73.015-32.466 73.015-73.143 0-40.396-33.318-73.143-73.015-73.143H73.015C32.69 374.857 0 407.323 0 448zm0 438.857C0 927.253 33.318 960 73.015 960h1975.114c40.325 0 73.015-32.466 73.015-73.143 0-40.396-33.318-73.143-73.015-73.143H73.015C32.69 813.714 0 846.18 0 886.857z"/><glyph unicode="" glyph-name="icon-text-block" d="M0 886.857C0 927.253 32.911 960 72.823 960h878.355c40.219 0 72.823-32.466 72.823-73.143 0-40.396-32.911-73.143-72.823-73.143H72.823C32.604 813.714 0 846.18 0 886.857zm0-292.571c0 40.396 32.496 73.143 73.564 73.143h681.824c40.628 0 73.564-32.466 73.564-73.143 0-40.396-32.496-73.143-73.564-73.143H73.564C32.936 521.143 0 553.609 0 594.286zm0-292.572c0 40.396 32.911 73.143 72.823 73.143h878.355c40.219 0 72.823-32.466 72.823-73.143 0-40.396-32.911-73.143-72.823-73.143H72.823C32.604 228.571 0 261.037 0 301.714zM0 9.143c0 40.396 32.746 73.143 73.457 73.143h389.467c40.569 0 73.457-32.466 73.457-73.143 0-40.396-32.746-73.143-73.457-73.143H73.457C32.888-64 0-31.534 0 9.143z"/></font>
</defs>
</svg>
