<svg width="400" height="350" viewBox="0 0 400 350" xmlns="http://www.w3.org/2000/svg"><g fill="none" fill-rule="evenodd"><path stroke="#979797" fill="#D8D8D8" d="M.5.5h399v349H.5z"/><path d="M183.482 145a4.995 4.995 0 0 1 1.743.31 4.32 4.32 0 0 1 1.44.86c.402.367.73.801.97 1.282a3.465 3.465 0 0 1 0 3.093c-.24.48-.568.915-.97 1.282-.418.38-.906.68-1.44.885a4.719 4.719 0 0 1-1.743.334 4.555 4.555 0 0 1-1.721-.333 4.638 4.638 0 0 1-1.426-.884c-.402-.366-.73-.801-.968-1.282a3.444 3.444 0 0 1 0-3.093 4.349 4.349 0 0 1 2.4-2.142 4.82 4.82 0 0 1 1.715-.312m-3.785 22.1 5.462-2.297h2.281V206h-7.743v-38.9Zm20.785-22.1a4.995 4.995 0 0 1 1.743.31 4.304 4.304 0 0 1 2.41 2.142 3.465 3.465 0 0 1 0 3.093c-.24.48-.568.915-.97 1.282-.418.38-.906.68-1.44.885a4.719 4.719 0 0 1-1.743.334 4.555 4.555 0 0 1-1.721-.333 4.638 4.638 0 0 1-1.426-.884c-.402-.366-.73-.801-.968-1.282a3.444 3.444 0 0 1 0-3.093 4.349 4.349 0 0 1 2.4-2.142 4.82 4.82 0 0 1 1.715-.312m-3.785 22.1 5.462-2.297h2.281V206h-7.743v-38.9Zm20.785-22.1a4.995 4.995 0 0 1 1.743.31 4.304 4.304 0 0 1 2.41 2.142 3.465 3.465 0 0 1 0 3.093c-.24.48-.568.915-.97 1.282-.418.38-.906.68-1.44.885a4.719 4.719 0 0 1-1.743.334 4.555 4.555 0 0 1-1.721-.333 4.638 4.638 0 0 1-1.426-.884c-.402-.366-.73-.801-.968-1.282a3.444 3.444 0 0 1 0-3.093 4.349 4.349 0 0 1 2.4-2.142 4.82 4.82 0 0 1 1.715-.312m-3.785 22.1 5.462-2.297h2.281V206h-7.743v-38.9Z" fill="#FFF" fill-rule="nonzero"/></g></svg>