<svg xmlns="http://www.w3.org/2000/svg" width="25" height="36" viewBox="0 0 25 36"><path d="M2.51508302.00000548454559C2.84938051-.0006661606 3.18093263.060355702 3.49308302.18001106 3.79294073.291380915 4.06761627.461353402 4.30108302.68001106 4.52635212.893073418 4.71072307 1.14556672 4.84508302 1.42501106 4.98184372 1.70912363 5.05195736 2.0207018 5.05011963 2.33601106 5.05011963 2.64310728 4.980039 2.94615788 4.84508302 3.22201106 4.71072307 3.5014554 4.52635212 3.7539487 4.30108302 3.96701106 4.06655236 4.18773823 3.7924046 4.36213421 3.49308302 4.48101106 3.18288812 4.60895111 2.85062662 4.67485983 2.51508302 4.67502093 2.18341429 4.67594697 1.85492992 4.6103181 1.54908302 4.48201106 1.25298038 4.36151744.981743317 4.18724763.749083018 3.96801106.523812785 3.75517944.339733144 3.50262082.206083018 3.22301106.0702751061 2.94742067-.000214541883 2.64424674.0000406425999 2.33701106-.00194060461 2.02157368.0685391964 1.70988873.206083018 1.42601106.340927661 1.14607871.526379512.89349804.753083018.68101106.984620902.463806905 1.25638291.293955651 1.55308302.18101106 1.8595445.0608241985 2.18589739-.000578996354 2.51508302.00000548454559M.391083018 12.8420111 3.45608302 11.5070111 4.73608302 11.5070111 4.73608302 35.4450111.391083018 35.4450111.391083018 12.8420111ZM12.413083.00000548454559C12.7473805-.0006661606 13.0789326.060355702 13.391083.18001106 13.6910472.291163026 13.9657637.461160854 14.199083.68001106 14.4243521.893073418 14.6087231 1.14556672 14.743083 1.42501106 14.8798437 1.70912363 14.9499574 2.0207018 14.9481196 2.33601106 14.9481196 2.64310728 14.878039 2.94615788 14.743083 3.22201106 14.6087231 3.5014554 14.4243521 3.7539487 14.199083 3.96701106 13.9647162 4.18794891 13.690526 4.36237192 13.391083 4.48101106 13.0808881 4.60895111 12.7486266 4.67485983 12.413083 4.67502093 12.0814143 4.67594697 11.7529299 4.6103181 11.447083 4.48201106 11.1509804 4.36151744 10.8797433 4.18724763 10.647083 3.96801106 10.4218128 3.75517944 10.2377331 3.50262082 10.104083 3.22301106 9.96827511 2.94742067 9.89778546 2.64424674 9.89804064 2.33701106 9.8960594 2.02157368 9.9665392 1.70988873 10.104083 1.42601106 10.2389277 1.14607871 10.4243795.89349804 10.651083.68101106 10.8826209.463806905 11.1543829.293955651 11.451083.18101106 11.7575445.0608241985 12.0838974-.000578996354 12.413083.00000548454559M10.289083 12.8420111 13.354083 11.5070111 14.634083 11.5070111 14.634083 35.4450111 10.289083 35.4450111 10.289083 12.8420111ZM22.311083.00000548454559C22.6453805-.0006661606 22.9769326.060355702 23.289083.18001106 23.5890472.291163026 23.8637637.461160854 24.097083.68001106 24.3223521.893073418 24.5067231 1.14556672 24.641083 1.42501106 24.7778437 1.70912363 24.8479574 2.0207018 24.8461196 2.33601106 24.8461196 2.64310728 24.776039 2.94615788 24.641083 3.22201106 24.5067231 3.5014554 24.3223521 3.7539487 24.097083 3.96701106 23.8627162 4.18794891 23.588526 4.36237192 23.289083 4.48101106 22.9788881 4.60895111 22.6466266 4.67485983 22.311083 4.67502093 21.9794143 4.67594697 21.6509299 4.6103181 21.345083 4.48201106 21.0489804 4.36151744 20.7777433 4.18724763 20.545083 3.96801106 20.3198128 3.75517944 20.1357331 3.50262082 20.002083 3.22301106 19.8662751 2.94742067 19.7957855 2.64424674 19.7960406 2.33701106 19.7940594 2.02157368 19.8645392 1.70988873 20.002083 1.42601106 20.1369277 1.14607871 20.3223795.89349804 20.549083.68101106 20.7806209.463806905 21.0523829.293955651 21.349083.18101106 21.6555445.0608241985 21.9818974-.000578996354 22.311083.00000548454559M20.187083 12.8420111 23.252083 11.5070111 24.532083 11.5070111 24.532083 35.4450111 20.187083 35.4450111 20.187083 12.8420111Z"/></svg>