<svg width="400" height="350" viewBox="0 0 400 350" xmlns="http://www.w3.org/2000/svg"><g fill="none" fill-rule="evenodd"><rect stroke="#979797" fill="#D8D8D8" x=".5" y=".5" width="399" height="349"/><path d="M4.48218874.00000943876921C5.07794817-.00114644615 5.66881502.103870692 6.22510559.309794646 6.75948909.501459451 7.24899484.793977958 7.66506144 1.17028246 8.06651881 1.53695758 8.39509062 1.9714924 8.63453666 2.4524093 8.87826113 2.94136011 9.0032123 3.47757854 8.99993724 4.02021809 8.99993724 4.54872319 8.8750449 5.0702659 8.63453666 5.54500249 8.39509062 6.02591939 8.06651881 6.46045421 7.66506144 6.82712933 7.24709883 7.20699542 6.75853364 7.50712664 6.22510559 7.7117108 5.67229994 7.9318925 5.0801689 8.04531981 4.48218874 8.04559706 3.89111407 8.04719075 3.30571433 7.93424507 2.76065736 7.71343178 2.23296586 7.50606519 1.74958791 7.2061511 1.3349585 6.82885031.933499113 6.46257228.605446444 6.02792505.367265404 5.54672347.125238923 5.07243912-.000382340147 4.55068419.0000724301354 4.02193907-.00345839723 3.47907902.122145318 2.94267683.367265404 2.45413027.607575221 1.97237353.938073336 1.53768835 1.342087 1.17200343 1.75471612.798200377 2.2390296.505890511 2.76778586.311515622 3.31393809.104676963 3.89553928-.000996438612 4.48218874.00000943876921M.696958265 22.100788 6.15916702 19.8032855 8.44028519 19.8032855 8.44028519 61 .696958265 61 .696958265 22.100788ZM21.4821887.00000943876921C22.0779482-.00114644615 22.668815.103870692 23.2251056.309794646 23.7596789.50108447 24.2492577.793646589 24.6650614 1.17028246 25.0665188 1.53695758 25.3950906 1.9714924 25.6345367 2.4524093 25.8782611 2.94136011 26.0032123 3.47757854 25.9999372 4.02021809 25.9999372 4.54872319 25.8750449 5.0702659 25.6345367 5.54500249 25.3950906 6.02591939 25.0665188 6.46045421 24.6650614 6.82712933 24.2473908 7.20735799 23.7587499 7.50753573 23.2251056 7.7117108 22.6722999 7.9318925 22.0801689 8.04531981 21.4821887 8.04559706 20.8911141 8.04719075 20.3057143 7.93424507 19.7606574 7.71343178 19.2329659 7.50606519 18.7495879 7.2061511 18.3349585 6.82885031 17.9334991 6.46257228 17.6054464 6.02792505 17.3672654 5.54672347 17.1252389 5.07243912 16.9996177 4.55068419 17.0000724 4.02193907 16.9965416 3.47907902 17.1221453 2.94267683 17.3672654 2.45413027 17.6075752 1.97237353 17.9380733 1.53768835 18.342087 1.17200343 18.7547161.798200377 19.2390296.505890511 19.7677859.311515622 20.3139381.104676963 20.8955393-.000996438612 21.4821887.00000943876921M17.6969583 22.100788 23.159167 19.8032855 25.4402852 19.8032855 25.4402852 61 17.6969583 61 17.6969583 22.100788ZM38.4821887.00000943876921C39.0779482-.00114644615 39.668815.103870692 40.2251056.309794646 40.7596789.50108447 41.2492577.793646589 41.6650614 1.17028246 42.0665188 1.53695758 42.3950906 1.9714924 42.6345367 2.4524093 42.8782611 2.94136011 43.0032123 3.47757854 42.9999372 4.02021809 42.9999372 4.54872319 42.8750449 5.0702659 42.6345367 5.54500249 42.3950906 6.02591939 42.0665188 6.46045421 41.6650614 6.82712933 41.2473908 7.20735799 40.7587499 7.50753573 40.2251056 7.7117108 39.6722999 7.9318925 39.0801689 8.04531981 38.4821887 8.04559706 37.8911141 8.04719075 37.3057143 7.93424507 36.7606574 7.71343178 36.2329659 7.50606519 35.7495879 7.2061511 35.3349585 6.82885031 34.9334991 6.46257228 34.6054464 6.02792505 34.3672654 5.54672347 34.1252389 5.07243912 33.9996177 4.55068419 34.0000724 4.02193907 33.9965416 3.47907902 34.1221453 2.94267683 34.3672654 2.45413027 34.6075752 1.97237353 34.9380733 1.53768835 35.342087 1.17200343 35.7547161.798200377 36.2390296.505890511 36.7677859.311515622 37.3139381.104676963 37.8955393-.000996438612 38.4821887.00000943876921M34.6969583 22.100788 40.159167 19.8032855 42.4402852 19.8032855 42.4402852 61 34.6969583 61 34.6969583 22.100788Z" transform="translate(179 145)" fill="#FFF" fill-rule="nonzero"/></g></svg>